<svg width="46" height="20" viewBox="0 0 46 20" fill="none" xmlns="http://www.w3.org/2000/svg">
<path d="M0.333333 16.5C0.333333 17.9728 1.52724 19.1667 3 19.1667C4.47276 19.1667 5.66667 17.9728 5.66667 16.5C5.66667 15.0272 4.47276 13.8333 3 13.8333C1.52724 13.8333 0.333333 15.0272 0.333333 16.5ZM24 1L24.3211 0.61674L24.0196 0.364104L23.7031 0.597713L24 1ZM39.8333 16.5C39.8333 17.9728 41.0272 19.1667 42.5 19.1667C43.9728 19.1667 45.1667 17.9728 45.1667 16.5C45.1667 15.0272 43.9728 13.8333 42.5 13.8333C41.0272 13.8333 39.8333 15.0272 39.8333 16.5ZM3.29693 16.9023L24.2969 1.40229L23.7031 0.597713L2.70307 16.0977L3.29693 16.9023ZM23.6789 1.38326L42.1789 16.8833L42.8211 16.1167L24.3211 0.61674L23.6789 1.38326Z" fill="black"/>
</svg>
