<svg width="43" height="40" viewBox="0 0 43 40" fill="none" xmlns="http://www.w3.org/2000/svg">
<path d="M2 17.5L1.70307 17.0977L1.40177 17.3201L1.53044 17.6718L2 17.5ZM23 2L23.3211 1.61674L23.0196 1.3641L22.7031 1.59771L23 2ZM41.5 17.5L41.6267 17.9837L42.5631 17.7384L41.8211 17.1167L41.5 17.5ZM9.5 38L9.03044 38.1718L9.35117 39.0485L9.9032 38.2957L9.5 38ZM20.5 23L20.3733 22.5163L20.2017 22.5613L20.0968 22.7043L20.5 23ZM2.29693 17.9023L23.2969 2.40229L22.7031 1.59771L1.70307 17.0977L2.29693 17.9023ZM22.6789 2.38326L41.1789 17.8833L41.8211 17.1167L23.3211 1.61674L22.6789 2.38326ZM1.53044 17.6718L9.03044 38.1718L9.96956 37.8282L2.46956 17.3282L1.53044 17.6718ZM9.9032 38.2957L20.9032 23.2957L20.0968 22.7043L9.0968 37.7043L9.9032 38.2957ZM20.6267 23.4837L41.6267 17.9837L41.3733 17.0163L20.3733 22.5163L20.6267 23.4837Z" fill="black"/>
<circle cx="2" cy="17" r="2" fill="black"/>
<circle cx="23" cy="2" r="2" fill="black"/>
<circle cx="41" cy="17" r="2" fill="black"/>
<circle cx="21" cy="23" r="2" fill="black"/>
<circle cx="9" cy="37" r="2" fill="black"/>
</svg>
