<svg width="23" height="17" viewBox="0 0 23 17" fill="none" xmlns="http://www.w3.org/2000/svg">
<path d="M1 8.66667L0.535761 8.48097C0.48808 8.60018 0.48808 8.73315 0.535761 8.85236L1 8.66667ZM22.4667 8.66667L22.9309 8.85236C22.9786 8.73316 22.9786 8.60017 22.9309 8.48097L22.4667 8.66667ZM11.7333 15.8333C8.08597 15.8333 5.52777 14.0149 3.8633 12.1655C3.03072 11.2404 2.42811 10.3136 2.03397 9.61808C1.83718 9.2708 1.69313 8.98255 1.59901 8.78288C1.55196 8.68309 1.51744 8.60555 1.49509 8.55396C1.48392 8.52817 1.47579 8.50889 1.47066 8.49656C1.46809 8.4904 1.46628 8.48598 1.46521 8.48336C1.46468 8.48206 1.46433 8.4812 1.46417 8.48079C1.46409 8.48059 1.46405 8.48051 1.46406 8.48054C1.46407 8.48055 1.46411 8.48066 1.46412 8.48067C1.46417 8.4808 1.46424 8.48097 1 8.66667C0.535761 8.85236 0.535851 8.85258 0.535953 8.85284C0.536003 8.85296 0.536117 8.85325 0.536216 8.85349C0.536415 8.85399 0.536661 8.8546 0.536955 8.85533C0.537544 8.85678 0.538322 8.8587 0.539291 8.86108C0.541229 8.86583 0.543932 8.87241 0.547404 8.88075C0.554349 8.89744 0.564376 8.9212 0.577533 8.95157C0.603845 9.01229 0.642698 9.09946 0.69448 9.2093C0.798008 9.42891 0.953443 9.73961 1.16394 10.1111C1.58438 10.853 2.2276 11.8429 3.12001 12.8345C4.90553 14.8184 7.71399 16.8333 11.7333 16.8333V15.8333ZM1 8.66667C1.46424 8.85236 1.46417 8.85253 1.46412 8.85266C1.46411 8.85267 1.46407 8.85278 1.46406 8.85279C1.46405 8.85282 1.46409 8.85274 1.46417 8.85254C1.46433 8.85213 1.46468 8.85127 1.46521 8.84997C1.46628 8.84735 1.46809 8.84293 1.47066 8.83677C1.47579 8.82444 1.48392 8.80516 1.49509 8.77937C1.51744 8.72778 1.55196 8.65024 1.59901 8.55045C1.69313 8.35078 1.83718 8.06253 2.03397 7.71525C2.42811 7.0197 3.03072 6.09291 3.8633 5.16781C5.52777 3.3184 8.08597 1.5 11.7333 1.5V0.5C7.71399 0.5 4.90553 2.51494 3.12001 4.49885C2.2276 5.49042 1.58438 6.48029 1.16394 7.22224C0.953443 7.59372 0.798008 7.90442 0.69448 8.12403C0.642698 8.23387 0.603845 8.32104 0.577533 8.38176C0.564376 8.41213 0.554349 8.43589 0.547404 8.45258C0.543932 8.46092 0.541229 8.4675 0.539291 8.47225C0.538322 8.47463 0.537544 8.47655 0.536955 8.478C0.536661 8.47873 0.536415 8.47934 0.536216 8.47984C0.536117 8.48008 0.536003 8.48037 0.535953 8.48049C0.535851 8.48075 0.535761 8.48097 1 8.66667ZM11.7333 1.5C15.3807 1.5 17.9389 3.3184 19.6033 5.16782C20.4359 6.09291 21.0385 7.01971 21.4327 7.71526C21.6295 8.06253 21.7735 8.35078 21.8677 8.55045C21.9147 8.65024 21.9492 8.72779 21.9716 8.77937C21.9828 8.80516 21.9909 8.82445 21.996 8.83677C21.9986 8.84293 22.0004 8.84735 22.0015 8.84997C22.002 8.85128 22.0023 8.85214 22.0025 8.85254C22.0026 8.85274 22.0026 8.85282 22.0026 8.8528C22.0026 8.85278 22.0026 8.85267 22.0026 8.85267C22.0025 8.85253 22.0024 8.85236 22.4667 8.66667C22.9309 8.48097 22.9308 8.48074 22.9307 8.48049C22.9307 8.48037 22.9305 8.48008 22.9305 8.47983C22.9303 8.47934 22.93 8.47873 22.9297 8.478C22.9291 8.47654 22.9283 8.47462 22.9274 8.47225C22.9254 8.4675 22.9227 8.46092 22.9193 8.45257C22.9123 8.43589 22.9023 8.41212 22.8891 8.38176C22.8628 8.32104 22.824 8.23387 22.7722 8.12403C22.6687 7.90442 22.5132 7.59371 22.3027 7.22224C21.8823 6.48029 21.239 5.49042 20.3466 4.49885C18.5611 2.51494 15.7526 0.5 11.7333 0.5V1.5ZM22.4667 8.66667C22.0024 8.48097 22.0025 8.4808 22.0026 8.48066C22.0026 8.48066 22.0026 8.48055 22.0026 8.48053C22.0026 8.48051 22.0026 8.48059 22.0025 8.48079C22.0023 8.48119 22.002 8.48205 22.0015 8.48336C22.0004 8.48598 21.9986 8.4904 21.996 8.49656C21.9909 8.50888 21.9828 8.52817 21.9716 8.55396C21.9492 8.60555 21.9147 8.68309 21.8677 8.78288C21.7735 8.98255 21.6295 9.2708 21.4327 9.61807C21.0385 10.3136 20.4359 11.2404 19.6033 12.1655C17.9389 14.0149 15.3807 15.8333 11.7333 15.8333V16.8333C15.7526 16.8333 18.5611 14.8184 20.3466 12.8345C21.239 11.8429 21.8823 10.853 22.3027 10.1111C22.5132 9.73962 22.6687 9.42891 22.7722 9.2093C22.824 9.09946 22.8628 9.01229 22.8891 8.95157C22.9023 8.92121 22.9123 8.89744 22.9193 8.88076C22.9227 8.87241 22.9254 8.86583 22.9274 8.86108C22.9283 8.85871 22.9291 8.85679 22.9297 8.85533C22.93 8.8546 22.9303 8.85399 22.9305 8.8535C22.9305 8.85325 22.9307 8.85296 22.9307 8.85284C22.9308 8.85259 22.9309 8.85236 22.4667 8.66667ZM11.7333 11.2333C10.3158 11.2333 9.16667 10.0842 9.16667 8.66667H8.16667C8.16667 10.6365 9.76352 12.2333 11.7333 12.2333V11.2333ZM14.3 8.66667C14.3 10.0842 13.1509 11.2333 11.7333 11.2333V12.2333C13.7031 12.2333 15.3 10.6365 15.3 8.66667H14.3ZM11.7333 6.1C13.1509 6.1 14.3 7.24914 14.3 8.66667H15.3C15.3 6.69685 13.7031 5.1 11.7333 5.1V6.1ZM11.7333 5.1C9.76352 5.1 8.16667 6.69685 8.16667 8.66667H9.16667C9.16667 7.24914 10.3158 6.1 11.7333 6.1V5.1Z" fill="#1D1929"/>
</svg>
